<mxfile host="app.diagrams.net" modified="2023-10-24T18:50:08.118Z" agent="Mozilla/5.0 (Macintosh; Intel Mac OS X 10_15_7) AppleWebKit/537.36 (KHTML, like Gecko) Chrome/118.0.0.0 Safari/537.36" etag="v1dGLJIDCxMDOZUR73zZ" version="21.7.4" type="device">
  <diagram name="Page-1" id="x7-9ouCwcgFe0Jsgar7X">
    <mxGraphModel dx="1222" dy="765" grid="1" gridSize="10" guides="1" tooltips="1" connect="1" arrows="1" fold="1" page="1" pageScale="1" pageWidth="827" pageHeight="1169" math="0" shadow="0">
      <root>
        <mxCell id="0" />
        <mxCell id="1" parent="0" />
        <mxCell id="8P44EkPEJpmwPfAIKVje-18" style="edgeStyle=orthogonalEdgeStyle;rounded=0;orthogonalLoop=1;jettySize=auto;html=1;entryX=0;entryY=0.364;entryDx=0;entryDy=0;entryPerimeter=0;" edge="1" parent="1" source="8P44EkPEJpmwPfAIKVje-1" target="8P44EkPEJpmwPfAIKVje-5">
          <mxGeometry relative="1" as="geometry" />
        </mxCell>
        <mxCell id="8P44EkPEJpmwPfAIKVje-1" value="" style="rounded=0;whiteSpace=wrap;html=1;" vertex="1" parent="1">
          <mxGeometry x="50" y="210" width="80" height="240" as="geometry" />
        </mxCell>
        <mxCell id="8P44EkPEJpmwPfAIKVje-2" value="Mobile client" style="sketch=0;outlineConnect=0;fontColor=#232F3E;gradientColor=none;strokeColor=#232F3E;fillColor=#ffffff;dashed=0;verticalLabelPosition=bottom;verticalAlign=top;align=center;html=1;fontSize=12;fontStyle=0;aspect=fixed;shape=mxgraph.aws4.resourceIcon;resIcon=mxgraph.aws4.mobile_client;" vertex="1" parent="1">
          <mxGeometry x="60" y="240" width="60" height="60" as="geometry" />
        </mxCell>
        <mxCell id="8P44EkPEJpmwPfAIKVje-3" value="Web&lt;br&gt;" style="sketch=0;outlineConnect=0;fontColor=#232F3E;gradientColor=none;strokeColor=#232F3E;fillColor=#ffffff;dashed=0;verticalLabelPosition=bottom;verticalAlign=top;align=center;html=1;fontSize=12;fontStyle=0;aspect=fixed;shape=mxgraph.aws4.resourceIcon;resIcon=mxgraph.aws4.client;" vertex="1" parent="1">
          <mxGeometry x="60" y="340" width="60" height="60" as="geometry" />
        </mxCell>
        <mxCell id="8P44EkPEJpmwPfAIKVje-15" style="edgeStyle=orthogonalEdgeStyle;rounded=0;orthogonalLoop=1;jettySize=auto;html=1;entryX=0;entryY=0.5;entryDx=0;entryDy=0;" edge="1" parent="1" source="8P44EkPEJpmwPfAIKVje-5" target="8P44EkPEJpmwPfAIKVje-11">
          <mxGeometry relative="1" as="geometry" />
        </mxCell>
        <mxCell id="8P44EkPEJpmwPfAIKVje-16" style="edgeStyle=orthogonalEdgeStyle;rounded=0;orthogonalLoop=1;jettySize=auto;html=1;entryX=0;entryY=0.5;entryDx=0;entryDy=0;" edge="1" parent="1" source="8P44EkPEJpmwPfAIKVje-5" target="8P44EkPEJpmwPfAIKVje-12">
          <mxGeometry relative="1" as="geometry" />
        </mxCell>
        <mxCell id="8P44EkPEJpmwPfAIKVje-17" style="edgeStyle=orthogonalEdgeStyle;rounded=0;orthogonalLoop=1;jettySize=auto;html=1;entryX=0;entryY=0.5;entryDx=0;entryDy=0;" edge="1" parent="1" source="8P44EkPEJpmwPfAIKVje-5" target="8P44EkPEJpmwPfAIKVje-13">
          <mxGeometry relative="1" as="geometry" />
        </mxCell>
        <mxCell id="8P44EkPEJpmwPfAIKVje-5" value="Load Blancer" style="sketch=0;outlineConnect=0;fontColor=#232F3E;gradientColor=none;strokeColor=#ffffff;fillColor=#232F3E;dashed=0;verticalLabelPosition=middle;verticalAlign=bottom;align=center;html=1;whiteSpace=wrap;fontSize=10;fontStyle=1;spacing=3;shape=mxgraph.aws4.productIcon;prIcon=mxgraph.aws4.network_load_balancer;" vertex="1" parent="1">
          <mxGeometry x="210" y="290" width="70" height="110" as="geometry" />
        </mxCell>
        <mxCell id="8P44EkPEJpmwPfAIKVje-20" style="edgeStyle=orthogonalEdgeStyle;rounded=0;orthogonalLoop=1;jettySize=auto;html=1;entryX=0.5;entryY=0;entryDx=0;entryDy=0;" edge="1" parent="1" source="8P44EkPEJpmwPfAIKVje-7" target="8P44EkPEJpmwPfAIKVje-19">
          <mxGeometry relative="1" as="geometry" />
        </mxCell>
        <mxCell id="8P44EkPEJpmwPfAIKVje-24" style="edgeStyle=orthogonalEdgeStyle;rounded=0;orthogonalLoop=1;jettySize=auto;html=1;entryX=0;entryY=0.5;entryDx=0;entryDy=0;" edge="1" parent="1" source="8P44EkPEJpmwPfAIKVje-7" target="8P44EkPEJpmwPfAIKVje-22">
          <mxGeometry relative="1" as="geometry" />
        </mxCell>
        <mxCell id="8P44EkPEJpmwPfAIKVje-33" style="edgeStyle=orthogonalEdgeStyle;rounded=0;orthogonalLoop=1;jettySize=auto;html=1;exitX=0.75;exitY=0;exitDx=0;exitDy=0;entryX=0;entryY=0.5;entryDx=0;entryDy=0;" edge="1" parent="1" source="8P44EkPEJpmwPfAIKVje-7" target="8P44EkPEJpmwPfAIKVje-27">
          <mxGeometry relative="1" as="geometry" />
        </mxCell>
        <mxCell id="8P44EkPEJpmwPfAIKVje-7" value="" style="rounded=0;whiteSpace=wrap;html=1;" vertex="1" parent="1">
          <mxGeometry x="400" y="210" width="120" height="280" as="geometry" />
        </mxCell>
        <mxCell id="8P44EkPEJpmwPfAIKVje-8" value="Online Booking" style="text;html=1;strokeColor=none;fillColor=none;align=center;verticalAlign=middle;whiteSpace=wrap;rounded=0;" vertex="1" parent="1">
          <mxGeometry x="430" y="170" width="60" height="30" as="geometry" />
        </mxCell>
        <mxCell id="8P44EkPEJpmwPfAIKVje-11" value="Service 1" style="whiteSpace=wrap;html=1;aspect=fixed;" vertex="1" parent="1">
          <mxGeometry x="435" y="220" width="60" height="60" as="geometry" />
        </mxCell>
        <mxCell id="8P44EkPEJpmwPfAIKVje-12" value="Servie 2" style="whiteSpace=wrap;html=1;aspect=fixed;" vertex="1" parent="1">
          <mxGeometry x="435" y="310" width="60" height="60" as="geometry" />
        </mxCell>
        <mxCell id="8P44EkPEJpmwPfAIKVje-13" value="Service 3" style="whiteSpace=wrap;html=1;aspect=fixed;" vertex="1" parent="1">
          <mxGeometry x="435" y="400" width="60" height="60" as="geometry" />
        </mxCell>
        <mxCell id="8P44EkPEJpmwPfAIKVje-19" value="" style="image;aspect=fixed;perimeter=ellipsePerimeter;html=1;align=center;shadow=0;dashed=0;fontColor=#4277BB;labelBackgroundColor=default;fontSize=12;spacingTop=3;image=img/lib/ibm/social/messaging.svg;" vertex="1" parent="1">
          <mxGeometry x="450" y="585" width="60" height="60" as="geometry" />
        </mxCell>
        <mxCell id="8P44EkPEJpmwPfAIKVje-21" value="Notification" style="text;html=1;align=center;verticalAlign=middle;resizable=0;points=[];autosize=1;strokeColor=none;fillColor=none;" vertex="1" parent="1">
          <mxGeometry x="474" y="538" width="80" height="30" as="geometry" />
        </mxCell>
        <mxCell id="8P44EkPEJpmwPfAIKVje-25" style="edgeStyle=orthogonalEdgeStyle;rounded=0;orthogonalLoop=1;jettySize=auto;html=1;entryX=0;entryY=0.5;entryDx=0;entryDy=0;" edge="1" parent="1" source="8P44EkPEJpmwPfAIKVje-22" target="8P44EkPEJpmwPfAIKVje-23">
          <mxGeometry relative="1" as="geometry" />
        </mxCell>
        <mxCell id="8P44EkPEJpmwPfAIKVje-22" value="CACHE" style="rounded=0;whiteSpace=wrap;html=1;" vertex="1" parent="1">
          <mxGeometry x="580" y="245" width="70" height="210" as="geometry" />
        </mxCell>
        <mxCell id="8P44EkPEJpmwPfAIKVje-23" value="" style="image;aspect=fixed;perimeter=ellipsePerimeter;html=1;align=center;shadow=0;dashed=0;spacingTop=3;image=img/lib/active_directory/database.svg;" vertex="1" parent="1">
          <mxGeometry x="730" y="321.5" width="79.05" height="58.5" as="geometry" />
        </mxCell>
        <mxCell id="8P44EkPEJpmwPfAIKVje-26" value="Database" style="text;html=1;align=center;verticalAlign=middle;resizable=0;points=[];autosize=1;strokeColor=none;fillColor=none;" vertex="1" parent="1">
          <mxGeometry x="735" y="378" width="70" height="30" as="geometry" />
        </mxCell>
        <mxCell id="8P44EkPEJpmwPfAIKVje-30" value="" style="edgeStyle=orthogonalEdgeStyle;rounded=0;orthogonalLoop=1;jettySize=auto;html=1;" edge="1" parent="1" source="8P44EkPEJpmwPfAIKVje-27" target="8P44EkPEJpmwPfAIKVje-29">
          <mxGeometry relative="1" as="geometry" />
        </mxCell>
        <mxCell id="8P44EkPEJpmwPfAIKVje-27" value="Payment" style="rounded=0;whiteSpace=wrap;html=1;" vertex="1" parent="1">
          <mxGeometry x="730" y="120" width="120" height="60" as="geometry" />
        </mxCell>
        <mxCell id="8P44EkPEJpmwPfAIKVje-29" value="Payment Gateway&lt;br&gt;Payu/Cashfree" style="whiteSpace=wrap;html=1;rounded=0;" vertex="1" parent="1">
          <mxGeometry x="930" y="120" width="120" height="60" as="geometry" />
        </mxCell>
      </root>
    </mxGraphModel>
  </diagram>
</mxfile>
